<?xml version="1.0" standalone="no"?>
<!DOCTYPE svg PUBLIC "-//W3C//DTD SVG 1.1//EN" "http://www.w3.org/Graphics/SVG/1.1/DTD/svg11.dtd">
<svg xmlns="http://www.w3.org/2000/svg">
<metadata>Copyright (C) 2018 by original authors @ fontello.com</metadata>
<defs>
<font id="pretzel" horiz-adv-x="1000" >
<font-face font-family="pretzel" font-weight="400" font-stretch="normal" units-per-em="1000" ascent="850" descent="-150" />
<missing-glyph horiz-adv-x="1000" />
<glyph glyph-name="arrow_down" unicode="&#xe800;" d="M209 556c11 0 23-5 28-11l266-305 265 305c12 11 34 11 51 0 12-11 12-34 6-45l-294-339c-11-17-39-17-51 0 0 0 0 0 0 0l-294 339c-16 11-11 34 0 45 6 6 17 6 23 11l0 0z" horiz-adv-x="1000" />

<glyph glyph-name="arrow_left" unicode="&#xe801;" d="M706 641c0-11-5-23-11-28l-311-266 305-265c17-12 17-34 6-51-11-17-34-17-51-6 0 0-6 0-6 6l-339 294c-16 11-16 39 0 50 0 0 0 0 0 0l339 294c17 12 40 12 51-5 12-6 12-17 17-23l0 0z" horiz-adv-x="1000" />

<glyph glyph-name="arrow_right" unicode="&#xe802;" d="M294 59c0 11 5 23 11 28l305 266-305 260c-11 11-17 34-6 51s34 17 51 5c0 0 6 0 6-5l339-294c17-11 17-40 0-51 0 0 0 0 0 0l-339-294c-17-11-40-11-51 6-6 11-6 22-11 28l0 0z" horiz-adv-x="1000" />

<glyph glyph-name="arrow_up" unicode="&#xe803;" d="M791 144c-11 0-23 5-28 11l-260 311-266-305c-11-17-34-17-51-6-16 11-16 34-5 51 0 0 0 6 5 6l294 339c12 17 40 17 51 0 0 0 0 0 0 0l294-339c11-17 11-40-6-51-11-12-22-12-28-17l0 0z" horiz-adv-x="1000" />

<glyph glyph-name="close" unicode="&#xe804;" d="M538 350l241 242c9 8 9 25 0 37-8 9-25 9-37 0l-242-241-242 241c-8 9-25 9-37 0s-8-29 0-37l242-242-242-242c-8-8-8-25 0-37 8-8 25-8 37 0l242 242 242-242c8-8 25-8 37 0s9 25 0 37l-241 242z" horiz-adv-x="1000" />

<glyph glyph-name="create_new" unicode="&#xe805;" d="M679 375h-154v154c0 13-17 25-29 21-13 0-21-12-21-21v-154h-154c-13 0-25-17-21-29 0-13 13-21 21-21h154v-154c0-13 17-25 29-21 13 0 21 13 21 21v154h154c13 0 25 17 21 29 0 13-8 21-21 21l0 0z" horiz-adv-x="1000" />

<glyph glyph-name="full_version" unicode="&#xe806;" d="M970 658h-940a26 26 0 0 1-26-26v-564a26 26 0 0 1 26-26h940a26 26 0 0 1 26 26v564a26 26 0 0 1-26 26z m-914-52h113v-512h-113z m167-512v512h225v-512z m723 0h-446v512h446z" horiz-adv-x="1000" />

<glyph glyph-name="minimize" unicode="&#xe807;" d="M763 325h-525c-13 0-25 17-21 29 0 13 12 21 21 21h529c12 0 25-17 21-29-5-13-13-21-25-21z" horiz-adv-x="1000" />

<glyph glyph-name="mobile_listen" unicode="&#xe808;" d="M428 94c-22 0-36 14-36 35 0 11 4 18 11 25l194 194-194 195c-14 14-18 35-4 49s36 18 50 4c0 0 3-4 3-4l219-219c15-14 15-35 0-49l-219-220c-7-7-17-10-24-10z m74-219c-262 0-477 212-477 477s212 477 477 477 477-212 477-477c0 0 0 0 0 0-4-265-216-477-477-477z m0 880c-226 0-407-181-407-407s181-406 407-406c222 0 406 180 406 403-3 229-184 410-406 410l0 0z" horiz-adv-x="1000" />

<glyph glyph-name="more_circle" unicode="&#xe809;" d="M500 761c225 0 411-186 411-411s-186-411-411-411-411 186-411 411 186 411 411 411m0 71c-268 0-482-214-482-482s214-482 482-482 482 214 482 482-214 482-482 482l0 0z m0-414c36 0 68-32 68-68s-32-68-68-68-68 32-68 68 32 68 68 68z m225 0c36 0 68-32 68-68s-32-68-68-68-68 32-68 68 32 68 68 68z m-450 0c36 0 68-32 68-68s-32-68-68-68-68 32-68 68 32 68 68 68z" horiz-adv-x="1000" />

<glyph glyph-name="more" unicode="&#xe80a;" d="M500 418c36 0 68-32 68-68s-32-68-68-68-68 32-68 68 32 68 68 68z m225 0c36 0 68-32 68-68s-32-68-68-68-68 32-68 68 32 68 68 68z m-450 0c36 0 68-32 68-68s-32-68-68-68-68 32-68 68 32 68 68 68z" horiz-adv-x="1000" />

<glyph glyph-name="online" unicode="&#xe80b;" d="M271 408c33 34 87 34 121 0 33-33 33-87 0-120-34-34-88-34-121 0s-33 87 0 120z m229-262c-17 0-29 12-29 33 0 9 4 17 8 21 84 83 84 217 0 300-12 13-12 33 0 46 13 12 29 12 42 0 108-108 108-279 0-388 0 0 0 0 0 0-4-8-13-12-21-12z m129-129c-16 0-29 12-29 33 0 8 4 17 8 21 155 154 155 404 0 558-12 13-12 34 0 46 13 13 30 13 42 0 179-179 179-471 0-650 0 0 0 0 0 0-4-4-12-8-21-8z" horiz-adv-x="1000" />

<glyph glyph-name="next" unicode="&#xe80c;" d="M662 670v-302l-543 315v-666l542 313v-302h62v642z m-491-561v482l417-241z" horiz-adv-x="1000" />

<glyph glyph-name="pause" unicode="&#xe80d;" d="M501-137c-270 0-488 218-488 488s218 486 488 486 486-218 486-488c0 0 0 0 0 0 0-268-218-486-486-486z m0 940c-252 0-454-202-454-454s202-454 454-454 454 202 454 454c-2 252-204 454-454 454z m-118-252h53v-402h-53v402z m184 0h52v-402h-52v402z" horiz-adv-x="1000" />

<glyph glyph-name="player_play" unicode="&#xe80e;" d="M501-137c-270 0-488 218-488 488s218 486 488 486 486-218 486-488c0 0 0 0 0 0 0-268-218-486-486-486z m0 940c-252 0-454-202-454-454s202-454 454-454 454 202 454 454c-2 252-204 454-454 454z m-118-281l299-173-299-173v346m-34 58v-460l396 229-396 231z" horiz-adv-x="1000" />

<glyph glyph-name="thumbs_down" unicode="&#xe80f;" d="M903 321a104 104 0 0 1-19 109 104 104 0 0 1-24 106 104 104 0 0 1-99 136h-500v48h-174v-532h173v30l96-32 100-148 18-109a91 91 0 0 1 79-76l16 0 11 0a91 91 0 0 1 87 64v4l21 112a167 167 0 0 1 2 76l-6 42h139a104 104 0 0 1 79 169z m-764 347h69v-428h-69z m685-464h-199l15-104a116 116 0 0 0 0-55l-21-115a39 39 0 0 0-37-28h-7l-17 0a39 39 0 0 0-33 32l-18 112a39 39 0 0 1-7 17l-104 157a39 39 0 0 1-21 14l-117 39v347h500a52 52 0 0 0 52-52 54 54 0 0 0-42-52h13a52 52 0 0 0 57-52 54 54 0 0 0-42-52h9a52 52 0 0 0 5-104h12a52 52 0 0 0 0-104z" horiz-adv-x="1000" />

<glyph glyph-name="thumbs_up" unicode="&#xe810;" d="M903 301a104 104 0 0 1-77 169h-141l6 42a167 167 0 0 1-2 76l-22 114v4a91 91 0 0 1-88 67h0l-11 0-16 0a91 91 0 0 1-79-76l-18-109-99-151-97-32v28h-172v-531h173v48h500a104 104 0 0 1 99 136 103 103 0 0 1 29 73 105 105 0 0 1-5 34 104 104 0 0 1 19 109z m-764 82h69v-429h-69z m683-69h-12a52 52 0 0 0-3-104h-9a54 54 0 0 0 42-52 52 52 0 0 0-52-52h-13a54 54 0 0 0 42-52 52 52 0 0 0-52-52h-500v348l110 39a39 39 0 0 1 19 14l106 155a39 39 0 0 1 7 17l18 112a39 39 0 0 0 33 32l17 0h5a39 39 0 0 0 37-29l21-114a116 116 0 0 0 0-55l-13-103h199a52 52 0 0 0 0-104z" horiz-adv-x="1000" />

<glyph glyph-name="volume_2" unicode="&#xe811;" d="M571-25l-329 192c-9 4-17 8-29 8h-134v354h134c8 0 20 4 29 9l329 187v-750z m-442 250h79c21 0 38-4 55-17l254-145v575l-250-146c-17-13-38-17-54-17h-84v-250z m521-67v55c75 0 138 62 138 137s-63 138-138 138v54c104 0 192-88 192-192s-88-192-192-192z m138 475l-5 5 0 0v-59c84-46 134-133 134-229s-54-183-134-229v-58h5l4 4c108 54 179 166 179 283s-75 229-183 283z" horiz-adv-x="1138" />

<glyph glyph-name="volume_3" unicode="&#xe812;" d="M571-25l-329 192c-9 4-17 8-29 8h-134v354h134c8 0 20 4 29 9l329 187v-750z m-442 250h79c21 0 38-4 55-17l254-145v575l-250-146c-17-13-38-17-54-17h-84v-250z m521-67v55c75 0 138 62 138 137s-63 138-138 138v54c104 0 192-88 192-192s-88-192-192-192z m138 475l-5 5 0 0v-59c84-46 134-133 134-229s-54-183-134-229v-58h5l4 4c108 54 179 166 179 283s-75 229-183 283z m300-283c0 146-71 279-188 363v-67c88-75 138-179 138-296s-50-221-138-296v-67c117 84 188 217 188 363z" horiz-adv-x="1138" />

<glyph glyph-name="mute" unicode="&#xe813;" d="M813 675l-167-167v217l-333-187c-9-9-17-9-30-9h-129v-354h134c8 0 12 0 20-4l-133-133 33-38 638 638-33 37z m-475-467c-17 13-34 17-55 17h-79v250h79c21 0 38 4 55 17l254 146v-180l-254-250 0 0z m304 117l-50-54v-208l-134 79-37-42 221-125v350z" horiz-adv-x="1000" />

<glyph glyph-name="volume" unicode="&#xe814;" d="M613-25l-330 188c-8 4-20 8-29 8h-133v358h129c8 0 21 4 29 9l334 191v-754z m-442 250h79c21 0 38-4 54-17l254-145v575l-250-146c-20-13-37-17-58-17h-79v-250z m517-67v50c75 0 137 63 137 138s-62 137-137 137v59c104 0 191-88 191-192s-83-192-191-192l0 0z" horiz-adv-x="1000" />

<glyph glyph-name="playlist" unicode="&#xe815;" d="M358 633h521v-62h-521v62z m0-250h521v-62h-521v62z m0-250h521v-62h-521v62z m-212 525c33 34 87 34 121 0s33-87 0-120-88-34-121 0-33 87 0 120z m0-250c33 34 87 34 121 0s33-87 0-120c-34-34-88-34-121 0s-33 87 0 120z m0-250c33 34 87 34 121 0 33-33 33-87 0-120-34-34-88-34-121 0-33 37-33 87 0 120z" horiz-adv-x="1000" />

<glyph glyph-name="radio" unicode="&#xe816;" d="M442 408c33 34 87 34 121 0s33-87 0-120-88-34-121 0-34 87 0 120z m-113-262c-8 0-16 4-21 8-108 109-108 279 0 388 0 0 0 0 0 0 13 12 34 12 46 0 13-13 13-29 0-42-83-83-83-217 0-300 13-12 13-33 0-46-8-4-16-8-25-8l0 0z m342 0c-17 0-29 12-29 33 0 9 4 17 8 21 83 83 83 217 0 300-12 13-12 33 0 46 13 12 29 12 42 0 108-108 108-279 0-388 0 0 0 0 0 0-4-8-13-12-21-12z m-471-129c-8 0-17 4-21 8-179 179-179 471 0 650 0 0 0 0 0 0 9 13 29 8 42-4 12-13 12-29 0-42-154-154-154-404 0-558 12-13 12-33 0-46-8-4-17-8-21-8z m600 0c-17 0-29 12-29 33 0 8 4 17 8 21 154 154 154 404 0 558-12 13-12 34 0 46 13 13 29 13 42 0 179-179 179-471 0-650 0 0 0 0 0 0-4-4-13-8-21-8z" horiz-adv-x="1000" />

<glyph glyph-name="search" unicode="&#xe817;" d="M868 19l-150 149a339 339 0 1 1-37-36l149-150a26 26 0 1 1 37 37z m-608 167a285 285 0 1 0 404 0 286 286 0 0 0-404 0z" horiz-adv-x="1000" />

<glyph glyph-name="settings" unicode="&#xe818;" d="M400 454c-54-54-54-146 0-204 29-29 67-42 100-42s75 13 100 42c54 54 54 146 0 204-50 59-142 59-200 0z m167-166c-38-38-96-38-129 0-38 37-38 95 0 129 16 16 41 25 66 25s46-9 67-25c33-34 33-92-4-129z m337 120c9 5 13 17 9 25-9 42-21 80-38 113-4 8-12 12-25 12-33 0-67-4-96-8 0 8-46 54-54 58 8 30 8 59 13 92 0 8-5 21-13 25-37 17-75 29-117 38-8 0-20 0-25-9-20-29-37-54-50-79-4 0-75-8-79-8-16 21-41 46-66 66-9 5-21 5-30 5-33-17-66-38-100-67-8-4-12-13-8-25 8-33 17-63 29-88-4-4-41-66-41-66-34 0-67-4-96-13-9-4-17-12-17-21-8-37-12-75-12-116 0-9 4-17 16-21 29-13 59-25 88-33 0-5 25-75 25-75-21-30-38-55-50-84-4-8-4-21 4-25 25-33 50-62 83-83 4-4 9-4 17-4 4 0 8 0 12 4 30 12 55 29 80 50 0 0 70-25 75-25 8-29 20-59 33-88 4-8 12-12 21-16 4 0 8 0 12 0 38 0 75 4 109 12 8 4 16 8 16 21 9 29 13 63 13 96 0 0 62 37 66 42 30-13 59-21 88-30h4c8 0 17 5 21 9 29 33 50 66 62 100 5 8 5 16-4 25-21 29-46 50-66 66 0 5 8 71 8 80 29 8 54 25 83 45z m-133-158c25-17 42-37 62-58-8-21-20-42-37-63-29 9-54 17-79 29-9 5-21 5-29-4s-84-50-84-50c-8-4-16-12-16-25 0-29-5-58-9-83-21-4-46-9-71-9-12 26-20 55-25 80-4 12-12 21-25 21-4 0-83 29-87 29-8 8-21 4-29 0-21-17-46-34-71-46-21 17-38 33-50 50 12 25 29 50 46 71 8 8 8 21 0 29-4 4-29 83-29 87 0 13-9 21-21 25-25 5-54 17-79 25 0 25 4 50 8 71 25 4 54 9 83 9 9 0 21 4 25 16 0 0 46 75 50 84 9 8 9 20 4 29-12 21-20 46-29 75 21 16 42 29 63 37 21-16 41-37 58-62 8-9 17-13 25-9l96 13c12 0 21 4 25 17 12 25 25 45 42 70 25-4 45-12 66-25 0-29-4-58-12-83-4-8 0-21 8-25 4-4 67-67 71-71 8-8 17-12 25-8 25 8 54 8 83 12 9-20 17-45 25-66-25-17-50-34-71-42-8-4-16-12-16-25l-13-96c4-12 9-25 17-29z" horiz-adv-x="1000" />

<glyph glyph-name="tracklist_play" unicode="&#xe819;" d="M235 699l530-353-538-353v706z" horiz-adv-x="1000" />

<glyph glyph-name="add-playlist" unicode="&#xe81a;" d="M246 613h646c16 0 33 12 33 33s-12 33-33 33h-646c-17-4-33-21-33-37s16-29 33-29z m646-171h-646c-17 0-33-13-33-34s12-33 33-33h646c16 0 33 13 33 33s-17 34-33 34z m0-234h-88v88c0 17-12 33-33 33s-33-12-33-33v-88h-88c-17 0-33-12-33-33s12-33 33-33h88v-84c0-16 12-33 33-33s33 13 33 33v88h88c16 0 33 12 33 33s-17 29-33 29z m-375 0h-271c-17 0-33-12-33-33s12-33 33-33h271c16 0 33 12 33 33s-17 33-33 33z" horiz-adv-x="1138" />

<glyph glyph-name="brand" unicode="&#xe81b;" d="M885 848l-485-270c-4-2-5-5-5-10v-226l112-73v234c0 4 2 8 5 10l260 145c8 4 17-2 17-10v-431c3-53-31-103-84-118-31-9-65-6-94 12l-260 165-1 1c-58 36-129 44-194 21-56-19-102-59-129-112-27-52-33-112-18-169 17-60 57-110 111-139 34-19 72-29 110-29 23 0 44 3 67 10 62 19 114 63 142 122l4 9-96 62-11-24c-14-29-41-52-72-62-30-9-62-5-90 10-28 15-48 40-57 71-17 59 17 123 75 143 13 5 26 7 39 7 21 0 42-6 61-17l258-164 1-1c37-22 79-33 120-33 23 0 45 3 66 9 102 30 167 125 165 226v621c0 10-10 15-17 10z" horiz-adv-x="902" />

<glyph glyph-name="discord" unicode="&#xe81c;" d="M435 417c-24 0-42-21-42-46s19-46 42-46c24 0 43 20 43 46 0 25-19 46-43 46z m152 0c-24 0-42-21-42-46s19-46 42-46c24 0 43 20 43 46s-19 46-43 46z m203 350h-559c-47 0-85-39-85-86v-563c0-48 38-86 85-86h473l-22 77 53-50 50-46 90-80v748c0 47-38 86-85 86z m-161-544s-15 17-28 33c55 16 76 50 76 50-17-11-34-19-48-25-21-8-41-14-61-18-40-7-76-5-108 1-23 4-44 11-61 18-9 3-20 8-30 14-1 1-3 1-4 2-1 0-1 1-2 1-7 4-11 7-11 7s20-33 73-49c-13-16-28-34-28-34-92 2-127 63-127 63 0 134 60 243 60 243 60 45 117 44 117 44l4-5c-75-22-110-55-110-55s9 5 25 12c44 20 80 25 94 26 3 1 5 1 8 1 25 3 54 4 84 1 39-5 82-16 125-40 0 0-33 31-104 53l6 7s57 1 117-44c0 0 60-109 60-243 0 0-35-61-127-63z" horiz-adv-x="1021" />

<glyph glyph-name="google_play" unicode="&#xe81d;" d="M247-53l383 217-82 91-301-308z m-140 797c-4-8-7-17-7-27v-757c0-14 5-26 13-35l382 390-388 429z m767-368l-134 75-136-139 98-108 172 97c16 8 24 23 26 38-2 15-10 29-26 37z m-206 116l-461 260 344-380 117 120z" horiz-adv-x="1000" />

<glyph glyph-name="refresh" unicode="&#xe81e;" d="M500 725c-160 0-293-99-348-238l58-24c46 117 156 200 290 200 101 0 192-50 248-125l-123 0 0-63 188 0 31 0 0 31 0 188-63 0 0-97c-68 79-169 128-281 128z m290-488c-45-117-156-199-290-199-102 0-192 50-249 125l124 0 0 62-187 0-32 0 0-31 0-188 63 0 0 97c68-77 168-128 281-128 160 0 293 99 348 238l-58 24z" horiz-adv-x="1000" />

<glyph glyph-name="brand-text" unicode="&#xe81f;" d="M0-150v257c0 10 8 18 18 18h103c131 0 131-204 0-204h-51v-71h-70z m121 212c-17 1-34 0-50 0v-79h50c38 1 41 79 0 79z m357-202v-10h-78l-47 81h-37v-81h-71v257c0 10 8 18 18 18h103c108 0 128-131 58-178l54-87z m-112 202c-17 1-34 0-50 0v-68h50c38 0 40 68 0 68z m304 0h-102v-39h94v-63h-94v-48h105v-62h-175v257c0 10 8 18 18 18h154v-63z m333-149l95 186c6 12-3 26-17 26h-366c-10 0-18-8-18-18v-44h68v-213h70v213h165l-107-213h219v63h-109z m314 149h-102v-39h94v-63h-94v-48h105v-62h-175v257c0 10 9 18 18 18h154v-63z m108-149h99v-63h-170v275h71v-212z m-412 936l-281-156c-2-1-3-3-3-6v-130l65-42v135c0 2 2 4 3 5l150 84c5 2 10-1 10-6v-248c1-31-18-60-48-69-19-5-38-3-55 7l-149 96-1 0c-34 21-74 25-112 12-32-11-59-34-74-64-16-30-20-65-11-98 10-34 33-63 64-80 20-11 42-17 64-17 13 0 25 2 38 6 36 11 66 36 82 70l3 6-56 35-6-13c-8-17-23-30-41-36-18-5-37-3-53 5-16 9-27 24-32 42-10 34 9 71 43 82 7 3 15 4 22 4 12 0 25-3 35-10l150-95 1-1c21-13 45-19 69-19 13 0 25 2 38 5 59 18 96 72 95 131v359c-1 6-6 9-10 6z" horiz-adv-x="1524" />

<glyph glyph-name="update" unicode="&#xe820;" d="M884 306q24-52 14-96l-34-184q-2-20-19-35t-39-15l-712 0q-22 0-39 15t-19 35l-34 184q-8 50 14 96l158 374q22 46 72 46l104 0-20-204-134 0 254-210 256 210-136 0-18 204 102 0q50 0 74-46z m-68-132q2 22-10 38t-34 16l-644 0q-22 0-34-16t-10-38l14-74q2-22 19-37t37-15l592 0q22 0 39 15t19 37z" horiz-adv-x="901" />

<glyph glyph-name="check" unicode="&#xe821;" d="M249 0q-34 0-56 28l-180 236q-16 24-12 52t26 46 51 14 47-28l118-154 296 474q16 24 43 30t53-8q24-16 30-43t-8-53l-350-560q-20-32-56-32z" horiz-adv-x="667" />

<glyph glyph-name="brand-text-horiz" unicode="&#xe822;" d="M1023 136v393c0 15 12 28 27 28h158c202-1 202-314 0-314h-78v-107h-107z m184 325c-25 0-52 0-77 0 0-35 0-86 0-121h77c59 0 63 120 0 121z m548-310v-15h-121l-72 124h-56v-124h-107v393c0 15 12 28 27 28h158c165-1 195-200 89-272l82-134z m-172 310c-25 0-52 0-77 0 0-35 0-71 0-104h77c59-1 62 103 0 104z m465 0h-156v-60h143v-96h-143v-74h162v-95h-269v393c0 15 13 28 28 28h235v-96z m511-229l145 285c10 18-4 40-24 40h-561c-15 0-28-13-28-28v-69h104v-325h106v325h254l-165-325h336v97h-167z m481 229h-156v-60h143v-96h-143v-74h161v-95h-268v393c0 15 12 28 27 28h236v-96z m164-229h153c0-36 0-61 0-97-86 0-175 0-261 0v422c36 0 72 0 109 0-1-218-1-145-1-325z m-2398 487l-362-202c-2-2-4-5-4-8v-169l84-53v173c0 3 2 6 5 8l194 108c5 3 12-1 12-8v-177c0 0 0 0 0 0v-144h0c2-39-23-76-62-88-24-7-50-4-71 9l-193 123-1 1c-44 26-97 32-146 15-41-14-75-44-96-83-20-39-25-84-13-126 13-45 42-82 83-104 25-14 54-22 82-22 17 0 33 3 50 8 46 14 85 47 106 91l3 7-72 46-7-17c-11-22-31-39-54-46-23-7-47-5-68 7-21 11-36 30-42 53-13 44 12 92 56 107 9 3 19 5 29 5 16 0 31-5 45-13l194-123 0-1c27-16 58-25 90-25 16 0 33 3 49 7 75 23 124 93 122 169h0v464c0 7-7 11-13 8z" horiz-adv-x="3500" />

<glyph glyph-name="close_circle" unicode="&#xe823;" d="M709 559c-7 10-21 10-32 0l-179-179-175 179c-11 10-25 10-32 0s-10-21 0-32l179-179-179-179c-10-7-10-21 0-28 4-3 11-7 14-7s11 4 14 7l179 179 179-179c4-3 11-7 14-7s11 4 14 7c7 7 7 21 0 32l-179 179 179 179c14 7 14 21 4 28z m-207 270c-267 0-481-214-481-481s214-481 481-481 481 215 481 481-218 481-481 481z m0-916c-239 0-435 197-435 435s193 439 435 439 435-197 435-435-197-439-435-439z" horiz-adv-x="1000" />

<glyph glyph-name="link" unicode="&#xe824;" d="M906 353c0-89-69-158-157-158h-109c0 0-4 0-4 5 0 5 0 5 4 5 30 10 60 34 79 64h35c49 0 83 39 83 84 0 44-39 83-83 83h-251c-50 0-84-39-84-83 0-5 0-10 0-15 0 0 0 0 0-5 0-5-5-10-10-10h-59c-5 0-5 0-10 5 0 0 0 0 0 5v0c0 5 0 10 0 20 0 88 69 157 158 157h251c84 0 157-69 157-157z m-812-5c0 88 69 157 157 157h109c0 0 5 0 5-5 0-5 0-5-5-5-30-9-59-34-79-59h-30c-49 0-83-39-83-83 0-45 39-84 83-84h252c49 0 83 39 83 84 0 4 0 9 0 14 0 0 0 0 0 5 0 5 5 10 10 10h59c5 0 5 0 10-5 0 0 0 0 0-5v0c0-5 0-10 0-19 0-89-69-158-158-158h-256c-88-5-157 69-157 153z" horiz-adv-x="1000" />

<glyph glyph-name="mixer" unicode="&#xe825;" d="M227 698c-31 42-92 48-131 13-34-32-37-84-9-122l177-238-178-240c-28-37-26-90 9-122 39-35 100-29 131 13l249 335c6 8 6 20 0 28l-248 333z m547 0c31 42 91 48 131 13 34-32 37-84 9-122l-178-238 179-240c28-37 26-90-9-122-39-35-100-29-131 13l-249 336c-6 8-6 19 0 27l248 333z" horiz-adv-x="1000" />

<glyph glyph-name="chat-announcement" unicode="&#xe826;" d="M727 700c-44 7-87-13-107-53l-3-4v-3c-34-33-274-87-357-103-33-7-60-14-73-17-24-7-37-27-37-47v-140c0-23 17-43 37-46 13-4 40-10 73-17l123-240c7-20 27-33 47-33h47c16 0 33 6 40 20s13 30 10 46l-44 154c100-27 127-47 134-54l3-6c20-37 60-57 107-54 60 7 60 60 60 97v400c-4 40-4 93-60 100z m-240-647c0-3 0-6-4-10 0 0-3-3-10-3h-40c-3 0-6 3-10 10l-110 210c30-7 74-17 124-30l50-177z m-27 214l-37 6c-66 17-116 27-136 30l0 0-7 4c0 0-3 0-3 0l0 0-7 0c-33 6-60 13-73 16-4 0-7 4-7 7v140c0 3 3 7 7 7 13 3 40 10 73 16 173 37 290 67 347 97v-380c-27 20-77 37-157 57z m283-64c0-43-3-53-23-56-27-4-50 6-63 26l0 4 0 0v450l0 0v6c10 20 36 30 63 27 20-3 23-10 23-57v-400z" horiz-adv-x="1000" />

<glyph glyph-name="chill-sm" unicode="&#xe827;" d="M638 470h0l-138 80-139-80h0l-34-20h0v-200h0l173-100 173 100h0v200h0z m-11-33l11 7 12-7v-14l-11-6-12 6z m-24 13v-27l-37-22-54 31v44l23 14v13l80-46z m24-187v14l11 7 12-7v-14l-12-6z m-12-20l-80-46v14l-23 13v44l54 31 38-22v-27z m-115-66l-12 7v13l12 7 12-7v-13z m-150 86v14l12 7 11-7v-14l-11-6z m46-13v27l38 22 54-31v-44l-23-13v-14l-80 46z m93 266l11 7 12-7v-13l-12-7-12 7z m11-104l54-31v-62l-54-31-54 31v62z m-35 91v-14l24-13v-44l-54-31-38 22v27l-12 7z m-92-66v-14l-12-7-11 7v14l12 6z m-23-41l11-6 24 13 38-22v-62l-38-22-24 13-11-6z m300-92l-12 7-23-14-37 22v62l37 22 24-13 11 7z" horiz-adv-x="1000" />

<glyph glyph-name="chill" unicode="&#xe828;" d="M842 641h0l-262 151h0l-80 46-81-46h0l-261-151h0l-81-47h0v-488h0l342-197h0l81-47 81 47h0l342 197h0v488h0z m-35-73l35 19 35-20v-40l-35-20-35 20z m-11 46l-35-20v-67l-99-57-139 80v115l58 34v39z m-262-679l-35-20-34 20v40l34 20 35-20z m-34 255l-138 80v160l138 80 139-80v-160z m-35 575l35 20 35-20v-40l-35-20-35 20z m-46-27v-40l58-33v-114l-138-80-100 56v67l-35 20z m-226-171v-40l-35-20-35 20v40l35 20z m-70-93l35-20 57 34 100-58v-160l-100-57-57 33-35-20z m0-341v40l35 20 35-20v-40l-35-20z m81-46l34 20v66l101 57 138-80v-115l-58-34v-40z m319-52v115l139 80 99-57v-66l35-20-215-125v40z m284 97v41l35 20 35-20v-40l-35-20z m70 94l-35 20-57-33-100 57v160l100 58 57-34 35 20z" horiz-adv-x="1000" />

<glyph glyph-name="edit-playlist" unicode="&#xe829;" d="M246 613h646c16 0 33 12 33 33s-12 33-33 33h-646c-17-4-33-21-33-37s16-29 33-29z m646-171h-646c-17 0-33-13-33-34s12-33 33-33h646c16 0 33 13 33 33s-17 34-33 34z m-375-234h-271c-17 0-33-12-33-33s12-33 33-33h271c16 0 33 12 33 33s-17 33-33 33z m250-166c-75 0-138 62-138 137 0 75 63 138 138 138s137-63 137-138c0-75-62-137-137-137z m0 221c-46 0-84-38-84-84 0-46 38-83 84-83 46 0 83 37 83 83 0 46-37 84-83 84z" horiz-adv-x="1138" />

<glyph glyph-name="edit" unicode="&#xe82a;" d="M770 473l-147 147c-6 7-20 7-30 0l-66-67c0 0 0 0 0 0s0 0 0 0l-247-246c-3-4-3-7-3-10 0 0 0 0 0 0l-50-197c-4-7 0-13 6-20 4-3 10-7 14-7 3 0 3 0 6 0l197 50c0 0 0 0 0 0 3 0 7 4 10 4l313 313c4 3 7 10 7 13-3 10-7 17-10 20z m-327-296l-116 116 216 217 117-117-217-216z m-136 76l93-93-130-33 37 126z m383 170l-117 117 37 37 117-117-37-37z" horiz-adv-x="1000" />

<glyph glyph-name="epic-sm" unicode="&#xe82b;" d="M677 437a12 12 0 0 1-14-3 156 156 0 0 0-50-36 101 101 0 0 0-23 35 12 12 0 0 1-9 7 12 12 0 0 1-12-5 182 182 0 0 0-22-26 172 172 0 0 0-37 68 12 12 0 0 1-22 0 172 172 0 0 0-36-67 182 182 0 0 0-21 25 12 12 0 0 1-11 5 12 12 0 0 1-9-8 101 101 0 0 0-23-35 155 155 0 0 0-50 38 12 12 0 0 1-20-11c6-22 12-41 17-57a303 303 0 0 0 15-62v-43c0-38 94-48 150-48s150 10 150 48v44a303 303 0 0 0 15 61c5 16 11 36 17 57a12 12 0 0 1-5 13z m-100-30a125 125 0 0 1 10-15 50 50 0 0 0-10 1 49 49 0 0 0-10 3c3 4 7 8 10 11z m-154 0c3-3 7-7 10-10a50 50 0 0 0-10-4 51 51 0 0 0-10-1 125 125 0 0 1 11 15z m220-34a285 285 0 0 1-16-68v-43c-3-9-50-25-127-25s-123 16-127 25v44a285 285 0 0 1-16 67l-6 19a102 102 0 0 1 77-21c30 6 54 30 72 71 19-41 43-65 72-71a102 102 0 0 1 77 21z m-135-1a12 12 0 0 1-17 0l-40-40a12 12 0 0 1 0-16l41-41a12 12 0 0 1 17 0l40 40a12 12 0 0 1 0 17z m-8-73l-25 25 25 24 24-24z" horiz-adv-x="1000" />

<glyph glyph-name="epic" unicode="&#xe82c;" d="M970 632a23 23 0 0 1-28-5 420 420 0 0 0-142-102 278 278 0 0 0-66 101 23 23 0 0 1-40 5 504 504 0 0 0-67-75q-61 58-105 191a23 23 0 0 1-44 0q-43-132-105-190a503 503 0 0 0-65 74 23 23 0 0 1-41-5 278 278 0 0 0-66-101 420 420 0 0 0-143 102 23 23 0 0 1-39-22c16-58 32-108 46-152 24-80 42-136 42-166v-116c0-84 204-122 393-122s394 38 394 122v116c0 30 17 87 42 166 13 44 29 94 46 152a23 23 0 0 1-12 27z m-262-59a323 323 0 0 1 41-60 148 148 0 0 0-45 2 143 143 0 0 0-39 14c16 14 30 30 43 44z m-414 0c12-14 26-29 42-44a143 143 0 0 0-40-15 148 148 0 0 0-43-2 323 323 0 0 1 41 61z m-150-231l17 16 39-39-40-40-8 8v0a251 251 0 0 1-8 55z m703-55l-8-8-39 40 39 39 17-16a251 251 0 0 1-8-55z m45 180c-8-28-15-52-22-73l-13 13a23 23 0 0 1-33 0l-72-72a23 23 0 0 1 0-33l72-72a23 23 0 0 1 24-5v-54c0-23-118-76-347-76s-348 53-348 76v54a23 23 0 0 1 24 5l72 72a23 23 0 0 1 0 33l-72 72a23 23 0 0 1-33 0l-13-13c-7 21-14 46-22 73-7 22-15 46-22 71 53-41 134-86 218-69 81 16 146 85 195 204 49-119 115-188 195-204 85-17 166 28 219 69-8-25-15-49-22-71z m-375-7a23 23 0 0 1-33 0l-108-109a23 23 0 0 1 0-32l108-109a23 23 0 0 1 33 0l109 109a23 23 0 0 1 0 32z m-16-201l-76 76 76 76 76-76z" horiz-adv-x="1000" />

<glyph glyph-name="explicit" unicode="&#xe82d;" d="M653 227c4-4 7-4 10-4 7 0 14 4 17 10l50 77 50-77c3-6 10-10 17-10 3 0 6 0 10 4 10 6 13 20 6 30l-60 93 60 93c7 10 4 24-6 30-10 7-24 4-30-6l-44-80-50 76c-6 10-20 14-30 7-10-7-13-20-6-30l60-93-60-94c-4-10-4-20 6-26z m-233 0c3-4 7-4 10-4 7 0 13 4 17 10l50 77 50-77c3-6 10-10 16-10 4 0 7 0 10 4 10 6 14 20 7 30l-60 93 60 93c7 10 3 24-7 30-10 7-23 4-30-6l-43-80-50 76c-7 10-20 14-30 7-10-7-13-20-7-30l60-93-60-94c-3-10-3-20 7-26z m-233 0c3-4 6-4 10-4 6 0 13 4 16 10l54 77 50-77c3-6 10-10 16-10 4 0 7 0 10 4 10 6 14 20 7 30l-60 93 60 93c7 10 3 24-7 30-10 7-23 4-30-6l-46-80-50 76c-7 10-20 14-30 7-10-7-14-20-7-30l60-93-60-94c-3-10-3-20 7-26z m756 380h-886c-10 0-20-10-20-20v-474c0-10 10-20 20-20h886c10 0 20 10 20 20v474c0 13-10 20-20 20z m-20-474h-846v434h843v-434z" horiz-adv-x="1000" />

<glyph glyph-name="hype-sm" unicode="&#xe82e;" d="M593 507l-10 6-50-88 47 12-89-145 21 112-52-34 51 163-16 0a183 183 0 0 1-49-357l0-2 1 1a183 183 0 0 1 147 332z m-13-46l11 20a158 158 0 0 0 16-13z m-240-111a161 161 0 0 0 139 158l-62-192 62 40-29-157a160 160 0 0 0-110 151z m160-160a159 159 0 0 0-41 6l160 261a160 160 0 0 0-119-267z" horiz-adv-x="1000" />

<glyph glyph-name="hype" unicode="&#xe82f;" d="M747 767l-21 12-120-215 127 34-273-445 62 327-144-94 142 449-33 0a484 484 0 1 1 260-68z m-48-130l44 78a436 436 0 0 0 62-50z m-637-287a441 441 0 0 0 394 436l-162-510 162 106-85-451a439 439 0 0 0-309 419z m438-439a437 437 0 0 0-123 18l443 721a438 438 0 0 0-320-739z" horiz-adv-x="1000" />

<glyph glyph-name="lock" unicode="&#xe830;" d="M700 437h-27v70c0 96-76 173-173 173-97 0-173-77-173-173v-70h-27c-30 0-53-24-53-54v-310c0-30 23-53 53-53h400c30 0 53 23 53 53v310c0 30-23 54-53 54z m-333 70c0 73 60 133 133 133s133-60 133-133v-70h-266v70z m346-434c0-6-6-13-13-13h-400c-7 0-13 7-13 13v310c0 7 6 14 13 14h400c7 0 13-7 13-14v-310z" horiz-adv-x="1000" />

<glyph glyph-name="pretzel-sm" unicode="&#xe831;" d="M657 443a183 183 0 1 1-64-250 183 183 0 0 1 64 250z m-76-230a160 160 0 1 0-81 297 161 161 0 0 0 40-5 160 160 0 0 0 41-293z m-60 218a83 83 0 1 1-42-162 84 84 0 0 1 21-2 83 83 0 0 1 21 164z m37-96a60 60 0 1 0-89 67h0a60 60 0 0 0 31 8 61 61 0 0 0 15-1 60 60 0 0 0 44-74z m-50 45a31 31 0 1 1-16-60 31 31 0 1 1 16 60z m0-32a8 8 0 1 0-12 9h0a8 8 0 0 0 4 1l2 0a8 8 0 0 0 6-10z" horiz-adv-x="1000" />

<glyph glyph-name="pretzel-station-sm" unicode="&#xe832;" d="M840 553c-110 187-353 250-543 137-187-110-250-353-137-543 73-124 207-194 340-194 70 0 137 17 200 57 190 110 253 353 140 543z m-163-500c-164-96-377-43-474 120-96 164-43 377 120 474 54 33 114 50 177 50 30 0 57-4 87-10 90-24 163-80 213-160 93-164 40-377-123-474z m-134 470c-46 14-96 7-136-20-40-23-70-63-84-110-13-46-3-96 20-136 24-40 64-70 110-84 14-3 30-6 47-6 33 0 63 10 93 26 40 24 70 64 84 110 13 47 3 97-20 137s-67 73-114 83z m84-206c-10-34-30-64-60-80-30-17-67-24-100-14-34 10-64 30-80 60-17 30-24 67-14 100s30 64 60 80v0c20 14 44 17 67 17 10 0 23 0 33-3 34-10 64-30 80-60 17-30 24-67 14-100z m-110 96c-17 7-37 4-50-6-17-10-27-24-30-40-7-17-4-37 6-50 10-17 24-27 40-30 7 0 10-4 17-4 13 0 23 4 33 10 17 10 27 24 30 40 4 17 4 37-6 50-10 17-24 27-40 30z m0-66c0-4-4-7-7-10-3-4-10-4-13-4-4 0-7 4-10 7-4 3-4 7-4 13 0 4 4 7 7 10v0c3 0 7 4 10 4 0 0 3 0 3 0 4 0 7-4 10-7 4-7 4-10 4-13z" horiz-adv-x="1000" />

<glyph glyph-name="pretzel-station" unicode="&#xe833;" d="M922 599c-67 114-174 194-300 226-128 33-259 14-373-53-232-137-309-439-170-673 92-154 255-240 423-240 84 0 170 22 249 68 112 66 192 174 224 300 33 128 14 260-53 372z m9-360c-29-115-102-212-205-272-211-125-484-56-609 155-125 213-54 485 157 610 69 41 148 61 226 61 37 0 74-4 111-14 115-29 212-101 272-204s77-220 48-336z m-377 323c-57 14-115 7-166-23-51-29-86-77-100-134-14-56-6-115 23-166 41-69 114-107 189-107 39 0 77 9 111 30 51 30 86 77 100 134 14 57 6 116-23 166-29 50-77 85-134 100z m114-255c-11-45-40-83-80-106-82-49-188-22-237 60-49 81-22 188 60 237 28 15 57 24 88 24 13 0 29-1 43-6 44-11 83-40 106-80 24-38 31-84 20-129z m-149 117c-20 5-40 1-57-8-36-21-48-67-27-103 14-23 40-37 65-37 14 0 26 3 39 11 16 11 29 26 35 46 5 20 1 40-8 57-12 15-27 28-47 34z m-4-100c-13-8-32-3-40 11-4 6-4 15-3 23 2 7 7 14 14 18 5 3 9 5 16 5 3 0 4 0 7-2 8-1 14-6 19-14 6-13 1-32-13-41z" horiz-adv-x="1000" />

<glyph glyph-name="pretzel" unicode="&#xe834;" d="M922 600a491 491 0 1 1-172-672 491 491 0 0 1 172 672z m-195-633a445 445 0 1 0 156 610 445 445 0 0 0-156-610z m-173 595a219 219 0 1 1-108-424 221 221 0 0 1 55-7 219 219 0 0 1 53 431z m34-361a173 173 0 1 0 60 237 173 173 0 0 0-60-237z m-126 214a76 76 0 1 1 103-26 76 76 0 0 1-103 26z m67-73a29 29 0 1 0-29 37 30 30 0 0 0 7-1 29 29 0 0 0 22-36z" horiz-adv-x="1000" />

<glyph glyph-name="repeat" unicode="&#xe835;" d="M897 350l-107 123-107-123h90c0-150-123-273-273-273-80 0-153 33-207 93-10 13-23 13-36 7-10-10-10-24-4-37 60-70 150-113 244-113 176 0 323 143 323 323h77z m-670 0c0 0 0 0 0 0 0 150 123 273 273 273 77 0 153-33 203-90 10-10 27-10 37-3 10 10 10 23 3 37-60 70-150 106-240 106-176 0-323-143-323-323 0 0 0 0 0 0h-77l107-123 107 123h-90z" horiz-adv-x="1000" />

<glyph glyph-name="shuffle" unicode="&#xe836;" d="M717 193c-74 7-127 20-164 50-10 7-26 7-36-6-7-10-7-27 6-37 44-33 110-53 194-60v-83l123 106-123 107v-77z m0 314v-80l123 106-123 107v-83c-224-17-257-117-284-210-26-90-50-160-246-160-14 0-27-10-27-27s10-27 27-27c233 0 266 104 296 194 24 90 47 166 234 180z m-534 3c140 0 184-37 207-67 3-6 13-10 20-10 7 0 10 4 17 7 10 10 13 23 3 37-47 56-123 83-247 83-13 0-23-10-23-23s10-27 23-27z" horiz-adv-x="1000" />

<glyph glyph-name="youtube-safe" unicode="&#xe837;" d="M870 337c0 6 0 10 0 16v57c0 63-7 123-7 127 0 6-10 60-36 86-34 34-67 37-84 37h-3c-107 7-263 7-267 7 0 0-160 0-266-7h-7c-17 0-53-3-83-37-27-26-34-80-37-86 0-4-7-64-7-127v-60c0-63 7-123 7-127 0-6 10-60 37-86 30-30 66-34 86-37 4 0 7 0 10 0 60-7 250-7 260-7 0 0 54 0 120 0 30-76 100-126 184-126 110 0 196 90 196 196-3 74-43 140-103 174z m-653-197c-4 0-7 0-10 0-17 3-44 7-60 23-14 14-24 47-24 64 0 0-6 60-6 120v56c0 60 6 120 6 120 4 17 10 50 24 64 20 26 40 30 56 30h4c103 6 263 6 263 6s160 0 263-6h4c13 0 36-4 60-27 13-13 23-47 23-63 0 0 7-60 7-120v-57c-17 7-37 7-57 7-110 0-197-90-197-197 0-10 0-20 4-27-60 0-107 0-107 0 0 0-197 4-253 7z m556-133c-70 0-133 46-150 113-3 13-6 27-6 40 0 87 70 157 156 157s157-70 157-157-70-153-157-153z m-20 116l-50 67-33-27 87-110 120 174-34 23-90-127z m-383 407v-280l270 140-270 140z m43-70l140-73-140-70v143z" horiz-adv-x="1000" />

<glyph glyph-name="upbeat-sm" unicode="&#xe838;" d="M598 430l82-72v96l-82 72-79-69 15-17 64 55 59-52v-34l-59 52-83-72v-96l83 73 59-53v-34l-59 53-83-73v-95l83 72 63-55 16 17-79 69-60-52v34l60 52 82-72v95l-82 72-60-52v34l60 52m-274 27l15-17 63 55 60-52v-34l-60 52-82-72v-96l82 73 60-53v-34l-60 53-82-73v-95l82 72 64-55 15 17-79 69-59-52v34l59 52 83-72v95l-83 72-59-52v34l60 52 82-72v96l-83 72-78-69" horiz-adv-x="1000" />

<glyph glyph-name="upbeat" unicode="&#xe839;" d="M715 547l192-168v216l-192 168-185-161 31-35 154 135 146-128v-93l-146 127-192-168v-215l192 168 146-128v-92l-146 128-192-169v-215l192 168 154-135 30 35-184 162-146-128v92l146 128 192-168v215l-192 168-146-128v93l146 128m-614 55l30-35 154 135 146-128v-93l-146 127-192-168v-215l192 168 146-128v-92l-146 128-192-169v-215l192 168 154-135 31 35-185 162-146-128v92l146 128 193-168v215l-193 168-146-128v93l146 128 193-168v216l-193 168-184-161" horiz-adv-x="1000" />

<glyph glyph-name="no-vocals" unicode="&#xe83a;" d="M500 760c-227 0-410-183-410-410s183-410 410-410 410 183 410 410-183 410-410 410z m0-777c-203 0-367 167-367 367 0 203 167 367 367 367 203 0 367-167 367-367 0-203-164-367-367-367z m-117 547c40 0 70-30 70-70s-30-70-70-70-70 30-70 70 30 70 70 70z m234 0c40 0 70-30 70-70s-30-70-70-70-70 30-70 70 30 70 70 70z m16-237c-6 10-20 14-30 7l-103-67-103 67c-10 7-24 3-30-7-7-10-4-23 6-30l87-56-87-57c-10-7-13-20-6-30 3-7 10-10 16-10 4 0 7 0 10 3l104 67 103-67c3-3 7-3 10-3 7 0 13 3 17 10 6 10 3 23-7 30l-87 57 87 56c17 7 20 20 13 30z" horiz-adv-x="1000" />

<glyph glyph-name="empty-playlist" unicode="&#xe83b;" d="M500 332c-78 0-142-51-142-115h23c0 51 53 91 119 91s119-40 119-91h23c-1 64-63 115-142 115z m-91 144c22 0 38-16 38-38s-16-39-38-39-39 17-39 39 17 38 39 38z m182 0c22 0 39-16 39-38s-17-39-39-39-38 17-38 39 16 38 38 38z m303-13c-49 175-211 298-394 298s-345-123-394-298c-18-14-27-34-27-56v-114c0-47 51-85 116-85 55-115 172-196 307-196s252 81 306 196c64 0 117 38 117 85v114c-3 22-13 40-31 56z m-394 276c164 0 310-104 365-258-16 8-36 11-58 13-55 115-172 195-307 195s-252-80-307-195c-21 0-41-3-58-13 55 152 201 258 365 258z m-400-446v114c0 31 37 58 84 62-14-37-22-77-22-119s8-82 22-119c-47 4-84 31-84 62z m400-259c-173 0-316 143-316 316s143 316 316 316 316-143 316-316-143-316-316-316z m400 259c0-31-37-58-84-62 14 37 22 77 22 119s-8 82-22 119c45-4 84-31 84-62v-114z m-593 126l-35-76c-4-6-6-13-6-18 0-22 19-41 41-41s40 19 40 41c0 5-2 12-4 18 0 0-36 76-36 76z m0-115c-11 0-22 10-22 22 0 4 0 8 3 11l19 40 18-40c2-3 2-7 2-9 2-14-8-24-20-24z" horiz-adv-x="1000" />

<glyph glyph-name="artist" unicode="&#xe83c;" d="M1148 364c-4 250-236 453-522 453-286 0-517-203-522-453-41-19-79-50-79-94v-245c0-62 82-104 136-110 21-19 46-32 75-32 61 0 111 50 111 111v305c0 60-50 111-111 111-27 0-50-11-69-26 19 207 217 370 459 370 243 0 441-163 458-370-19 15-44 26-69 26-61 0-111-51-111-111v-305c0-61 50-111 111-111 29 0 56 13 75 32 54 6 136 46 136 110v245c2 41-36 75-78 94z m-1058-339v245c0 10 17 25 39 35 0-2 0-4 0-6v-305c0-2 0-4 0-6-22 12-39 27-39 37z m198 274v-305c0-27-21-48-48-48s-48 21-48 48v305c0 27 21 48 48 48s48-21 48-48z m679-305v305c0 27 21 48 48 48s48-21 48-48v-305c0-27-21-48-48-48s-48 23-48 48z m198 31c0-10-17-25-40-35 0 2 0 4 0 6v303c0 2 0 4 0 6 21-10 40-25 40-35v-245z m-380 122l-134-59 38 109c4 12 0 25-8 33-11 8-23 10-34 4l-204-98c-15-8-23-27-15-42s27-23 42-14l135 64-37-104c-4-12 0-25 8-33 7-7 13-9 21-9 4 0 8 0 13 2l200 88c17 6 23 25 17 42s-25 23-42 17z" horiz-adv-x="1255" />

<glyph glyph-name="livestreamer" unicode="&#xe83d;" d="M1470 758c-12 7-28 7-38 0l-255-155v188c0 20-18 38-38 38h-1080c-20 0-38-18-38-38v-887c0-21 18-39 38-39h1077c21 0 39 18 39 39v188l254-155c13-7 26-7 39 0 13 8 20 21 20 34v753c0 16-7 28-18 34z m-59-720l-254 154c-13 8-26 8-39 0-13-8-20-21-20-33v-219h-1000v812h1000v-218c0-13 7-26 20-34 13-7 29-7 39 0l254 155v-617z m-565 151l-116 404h-375l92-326c0 0 0 0 0 0-59 0-105-49-105-106 0-59 49-105 105-105s106 49 106 105c0 10-3 21-5 28l0 0-90 327h216l69-249c0 0 0 0 0 0-59 0-105-49-105-106 0-59 48-105 105-105s105 49 105 105c0 10 0 18-2 28l0 0z" horiz-adv-x="1506" />

<glyph glyph-name="catalog" unicode="&#xe83e;" d="M1069 350m-569-500c-111 0-215 35-312 104-98 84-167 209-181 340-14 132 21 264 104 369 83 104 202 166 333 187 132 14 264-21 369-104 27-21 55-49 83-83l118-153-83-63-118 153c-21 21-42 49-63 63-83 62-187 90-292 83-104-14-201-70-264-153-69-83-97-187-83-292 14-104 63-201 146-263 174-132 424-105 556 62l215 278 83-63-215-277c-97-126-243-188-396-188z m1451 104c216 167 257 486 84 702-167 215-486 257-702 83-34-28-62-56-83-83l-215-271 76-70 215 271c21 28 42 49 70 70 173 132 423 104 555-70 132-173 105-423-69-555-174-132-424-105-556 69l-118 153-83-63 118-152c97-126 243-195 396-195 111 7 222 42 312 111z m-882 396" horiz-adv-x="2139" />

<glyph glyph-name="feature_overlays" unicode="&#xe83f;" d="M950 713h-900c-27 0-49-22-49-48v-339-237-54c0-26 22-48 49-48h900c27 0 48 22 48 48v630c1 26-21 48-48 48z m-900-436h329v-140h-329v140z m900-242h-900v54h377v237h-377v339h900v-630z" horiz-adv-x="1000" />

<glyph glyph-name="feature_wp" unicode="&#xe840;" d="M465 326c47 0 83-36 83-83s-36-82-83-82-82 36-82 82 36 83 82 83z m232 0c46 0 82-36 82-83s-36-82-82-82-83 36-83 82 36 83 83 83z m33-85l-77 275h-177l74-262-51-13-93 326h286l87-313-49-13z m-149-388c-213 0-404 136-473 336l49 18c62-180 231-303 424-303h3c120 0 231 49 316 134s131 198 128 316c0 247-203 445-447 445h-3c-246 0-447-201-444-448h-52c-2 275 221 499 496 502h3c275 0 499-224 499-499 0-134-52-260-144-355-93-92-219-146-355-146 3 0 0 0 0 0z m-470 452l-111 147 41 30 75-97 82 90 39-36-126-134z" horiz-adv-x="1082" />

<glyph glyph-name="money" unicode="&#xe841;" d="M357-2c-8 0-17 2-23 9-12 12-12 31 0 43l466 466c12 13 31 13 43 0 13-13 13-31 0-44l-465-465c-6-7-13-9-21-9z m86-56l463 463c13 13 13 32 0 44-12 13-31 13-44 0l-463-463c-13-13-13-32 0-44 6-6 14-9 23-9s14 3 21 9z m64-65l464 464c12 12 12 31 0 43-13 13-31 13-44 0l-463-461c-13-13-13-31 0-44 6-6 14-8 22-8s15 0 21 6z m-16 468c46 46 41 127-11 179-52 53-133 57-179 11-46-46-42-128 10-180 29-29 65-41 100-41 30-3 59 8 80 31z m-55 136c28-28 34-69 11-92-23-23-63-19-92 10-27 27-33 69-10 92 10 10 22 15 35 15 19 0 40-9 56-25z m343 56l-466-466c-6-6-14-8-23-8s-16 2-23 8l-240 243c-12 12-12 31 0 43l464 466c12 12 31 12 43 0l97-96c0 0 0 0 0 0s0 0 0 0l146-146c14-13 14-34 2-44z m-313 171c29-15 66-15 96 0l-48 48-48-48z m-372-372l48-48c15 30 15 67 0 96l-48-48z m246-150c-29 15-66 15-96 0l48-48 48 48z m278 466l-10 10c-30-19-61-29-94-29-34 0-65 10-94 29l-232-232c38-56 38-131 0-187l10-11c57 38 132 38 188 0l232 232c-38 56-38 131 0 188z m94-94l-48 48c-15-29-15-67 0-96l48 48z" horiz-adv-x="1000" />

<glyph glyph-name="feature_keybinds" unicode="&#xe842;" d="M832-150h-664c-92 0-168 76-168 168v664c0 92 76 168 168 168h664c92 0 168-76 168-168v-664c0-92-76-168-168-168z m-664 944c-62 0-112-50-112-112v-664c0-62 50-112 112-112h664c62 0 112 50 112 112v664c0 62-50 112-112 112h-664z m636-748h-608c-17 0-28 11-28 28v608c0 17 11 28 28 28h605c17 0 28-11 28-28v-605c3-17-11-31-25-31z m-580 56h549v552h-549v-552z m132 205h-56v246c0 17 11 28 28 28h53c59 0 109-47 109-109s-47-109-109-109h-25v-56z m0 112h25c28 0 53 22 53 53s-22 53-53 53h-25v-106z" horiz-adv-x="1000" />

<glyph glyph-name="viewers" unicode="&#xe843;" d="M837 17l-62 7c0 6 0 12 0 18 0 93-70 178-176 213l19 60c130-41 219-151 219-271 2-8 0-18 0-27z m-674-2c0 9-2 19-2 27 0 120 89 230 219 271l19-60c-106-33-176-120-176-213 0-6 0-14 2-21l-62-4z m337 205c-124 0-225 101-225 225s101 227 225 227c124 0 225-101 225-225s-101-227-225-227z m0 390c-91 0-163-74-163-163s74-163 163-163c91 0 163 74 163 163s-72 163-163 163z m0-739c-269 0-488 219-488 487s219 490 488 490c269 0 488-219 488-488s-219-489-488-489z m0 915c-235 0-426-192-426-426s193-425 426-425c236 0 426 192 426 425s-190 426-426 426z" horiz-adv-x="1000" />

<glyph glyph-name="feature_settings" unicode="&#xe844;" d="M275 74c-3 0-5 0-8 0-152 5-272 133-267 285s134 272 285 267h430c5 0 10 0 18 0 73-3 141-34 194-86 49-55 75-123 73-199-5-152-131-272-285-267h-432c0 0-3 0-8 0z m3 500c-121 0-220-97-225-217-6-123 94-225 217-231 5 0 10 0 16 0h431l0 0c123-2 228 95 231 218 2 123-95 225-218 230-5 0-10 0-15 0h-432c0 0-3 0-5 0z m7-87c76 0 139-62 139-138s-63-139-139-139-138 63-138 139 63 138 138 138z" horiz-adv-x="1000" />

<glyph glyph-name="feature_bot" unicode="&#xe845;" d="M880-150h-762v588h762v-588z m-718 44h674v500h-674v-500z m0 121h-152v291h152v-291z m-108 44h64v201h-64v-201z m934-44h-152v291h152v-291z m-108 44h64v201h-64v-201z m-485 229c33 0 62-28 62-61 0-33-29-62-62-62s-61 29-61 62c0 33 28 61 61 61z m208 0c33 0 61-28 61-61 0-33-28-62-61-62s-62 29-62 62c0 33 28 61 62 61z m-258-196h308v-48h-308c0 0 0 48 0 48z m357 613c0 79-91 145-203 145s-203-66-203-145c0-66 62-122 148-139 15-22 35-42 57-60 2 20 7 38 18 55 101 7 183 69 183 144z" horiz-adv-x="1000" />

<glyph glyph-name="checkmark" unicode="&#xe846;" d="M792 575l-338-592-241 309 100 79 125-163 245 430 109-63z" horiz-adv-x="1000" />

<glyph glyph-name="edm-sm" unicode="&#xe847;" d="M500 532l-185-92-16-9 9-12 192-257 192 257 9 12-17 9z m-128-90l128 64 128-64h0l-129 8-128-8z m128-242l-112 151 112-97 113 97z m0 85l-123 105 123-49 123 49z m132 134l-132-53-132 53h0l131 8 133-8z" horiz-adv-x="1000" />

<glyph glyph-name="edm" unicode="&#xe848;" d="M0 560l500-670 500 670-500 250z m500-593l-322 431 322-277 322 277z m0 216l-343 294 343-138 343 138z m362 351h0l-362-145-361 145h0l361 22 362-21z m-360 69h-2l-354-22 354 178 354-178z" horiz-adv-x="1000" />

<glyph glyph-name="holiday" unicode="&#xe849;" d="M681 531l-181-53-181 53 53-181-53-181 181 53 181-53-53 181z m-68-294l-113 33-113-33 33 113-33 113 113-33 113 33-33-113z m-47 510l-66 120-66-120-120-66 120-66 66-119 66 120 120 65z m-34-97l-32-58-32 58-58 31 58 32 32 58 32-58 58-32z m-98-566l-120-65 120-66 66-120 66 120 120 66-120 66-66 119z m156-65l-58-32-32-58-32 58-58 32 58 31 32 58 32-58z m241 517l-66-120-119-66 120-66 65-120 66 120 120 66-120 66z m32-218l-32-58-31 58-58 32 58 32 31 58 32-58 58-32z m-694 218l-66-120-120-66 120-66 66-120 66 120 119 66-120 66z m31-218l-31-58-32 58-58 32 58 32 32 58 31-58 58-32z" horiz-adv-x="1000" />

<glyph glyph-name="holiday-sm" unicode="&#xe84a;" d="M620 276l26 48 48 26-48 26-26 48-26-48-43-24 20 68-68-20 24 43 48 26-49 27-26 48-26-48-48-26 48-26 24-43-68 20 20-68-43 24-26 48-27-49-48-26 48-26 26-48 26 48 43 24-20-68 68 20-24-43-47-26 48-27 26-48 26 48 48 26-48 26-24 43 68-20-20 68 43-24z m-9 83l9 17 9-17 16-9-16-9-9-17-9 17-17 9z m-221-18l-9-17-10 17-16 9 16 9 10 17 9-17 16-9z m85 129l16 9 9 16 9-16 17-9-17-9-9-17-9 17z m51-239l-17-10-9-16-9 16-17 10 17 9 9 16 9-16z m10 83l-36 11-36-11 11 36-11 36 36-11 36 11-10-36z" horiz-adv-x="1000" />

<glyph glyph-name="sm" unicode="&#xe84b;" d="M705 418l-16 18-27-23a123 123 0 0 1-3 26l16 13-15 18-10-8a119 119 0 0 1-11 16l1 24-12-10a74 74 0 0 1-15 11 171 171 0 0 1-97 28 170 170 0 0 1-97-27 120 120 0 0 1-38-43 98 98 0 0 1-7-20 131 131 0 0 1 0-62l-32-26 16-18 24 20c3-7 6-14 9-21l-19-15 16-18 15 13 5-10-1-35 15 13c18-27 42-58 75-100a25 25 0 0 1 20-11h1a25 25 0 0 1 20 11c68 85 110 146 121 200z m-307 17a75 75 0 0 0 6 15 99 99 0 0 0 29 33 150 150 0 0 0 84 24 151 151 0 0 0 85-24 52 52 0 0 0 9-7l-50-41 2 49-81-67 2 50-88-72a107 107 0 0 0 2 40z m4-65l57 46-2-50 81 67-3-50 81 67-2-50 25 21a110 110 0 0 0 0-29l-49-39 2 50-81-67 2 49-81-66 2 49-24-19a202 202 0 0 0-8 21z m117-176l-1-1a2 2 0 0 0-1-1 2 2 0 0 0-1 1l-1 1c-34 43-57 74-75 101l48 40-3-50 82 67-3-50 62 51c-18-42-54-93-107-158z" horiz-adv-x="1000" />

<glyph glyph-name="rock" unicode="&#xe84c;" d="M967 532l-29 36-84-68a317 317 0 0 1-9 83v0l46 38-29 37-33-27c-1 2-1 4-2 6a287 287 0 0 1-30 46l3 48-26-21a208 208 0 0 1-42 34 440 440 0 0 1-250 71 440 440 0 0 1-249-71c-48-28-88-89-96-107a245 245 0 0 1-18-53 335 335 0 0 1 0-163l-86-72 30-35 71 59a656 656 0 0 1 29-68l-54-45 30-36 46 39q9-17 19-34l-3-77 34 28c46-72 110-156 200-268a58 58 0 0 1 46-27h2a58 58 0 0 1 47 27c178 222 288 382 316 522z m-803 41a202 202 0 0 0 15 44c6 14 42 67 78 88l1 0a400 400 0 0 0 224 64 400 400 0 0 0 224-63l2-1a154 154 0 0 0 31-24l-151-123 6 129-212-175 6 130-227-188a287 287 0 0 0 3 119z m9-169l164 136-6-130 212 174-6-129 212 174-6-129 61 51a288 288 0 0 0 0-92l-141-117 6 130-212-174 6 129-211-174 6 129-58-47a552 552 0 0 0-27 69z m319-464l-2-3a9 9 0 0 0-17 0l-2 3c-90 113-153 198-200 269l142 116-6-129 211 174-6-129 172 141c-43-118-143-257-292-442z" horiz-adv-x="1000" />

<glyph glyph-name="hiphop-sm" unicode="&#xe84d;" d="M660 385v50h-316v-50h-16v115h-23v-311h390v196z m-293 26h270v-26h-270z m146-49v-151h-25v151z m-185 0h136v-151h-136z m343-151h-135v151h136z m-275 131a57 57 0 1 1 56-56 57 57 0 0 1-56 56z m0-90a34 34 0 1 0 33 34 34 34 0 0 0-33-34z m207-23a57 57 0 1 1-56 57 57 57 0 0 1 56-57z m0 90a34 34 0 1 0-34-33 34 34 0 0 0 34 33z" horiz-adv-x="1000" />

<glyph glyph-name="hiphop" unicode="&#xe84e;" d="M899 433v125h-790v-125h-50v298h-47v-785h976v487z m-743 79h697v-79h-697z m383-125v-395h-77v395z m-480 0h356v-395h-356z m883-395h-357v395h357z m-707 332a137 137 0 1 1 138-137 138 138 0 0 1-138 137z m0-228a91 91 0 1 0 92 91 91 91 0 0 0-92-91z m527-47a137 137 0 1 1-137 138 138 138 0 0 1 137-138z m0 229a91 91 0 1 0-91-91 91 91 0 0 0 91 91z" horiz-adv-x="1000" />

<glyph glyph-name="ambient" unicode="&#xe84f;" d="M730 365a79 79 0 1 1 80-79 80 80 0 0 1-80 79z m0-113a33 33 0 1 0 34 34 33 33 0 0 0-34-34z m132 429q-16 15-31 30c-2 1-4 3-6 5l0 0 81 82-32 32-86-85a484 484 0 0 1-705-169 219 219 0 0 1-23-50 483 483 0 0 1 53-456l-158-159 33-32 154 154a489 489 0 0 1 36-38l-84-84 33-32 86 86a483 483 0 0 1 402-91 108 108 0 0 1 15 4 484 484 0 0 1 262 767l153 153-33 32z m-42-50a62 62 0 1 0-19 44l0 0a62 62 0 0 0 19-44z m-459-244a76 76 0 1 0 76-75 76 76 0 0 0-76 75z m76 122a122 122 0 0 1-90-205 174 174 0 0 0-243 208 437 437 0 0 0 19 42 174 174 0 0 0 314-46z m160-590a63 63 0 1 0 16 2l-6-1a62 62 0 0 0-10-1z m104 34a108 108 0 1 1-185-44h-6a439 439 0 0 0-438 439c0 5 0 11 0 16a220 220 0 0 1 317-89 122 122 0 0 1 98 222 219 219 0 0 1-269 177 438 438 0 0 0 503 58 108 108 0 1 1 142-125 438 438 0 0 0-162-654z" horiz-adv-x="1000" />

<glyph glyph-name="ambient-sm" unicode="&#xe850;" d="M586 294a33 33 0 1 1-32 32 33 33 0 0 1 32-32z m0 41a9 9 0 1 0-10-9 9 9 0 0 0 10 9z m-274-162l55 55c3-3 6-6 9-9l-29-29 16-17 31 31a181 181 0 0 1 150-33 42 42 0 0 1 6 2 183 183 0 0 1 100 287l55 55-16 16-54-53c-2 2-5 4-7 7l-2 2 28 28-17 16-30-30a183 183 0 0 1-264-65 84 84 0 0 1-10-21 182 182 0 0 1 19-169l-57-57z m224 20a20 20 0 1 0 8 2h0a20 20 0 0 0-8-2z m80 261a20 20 0 1 0-20 20 20 20 0 0 0 13-5l2-1a20 20 0 0 0 4-13z m-41 38a43 43 0 1 1 61-53 160 160 0 0 0-57-231 42 42 0 0 1 0 5 43 43 0 1 1-79-24 160 160 0 0 0-156 153 84 84 0 0 1 115-25 48 48 0 0 1 39 88 84 84 0 0 1-83 69l-9 0a159 159 0 0 0 169 17z m-213-68a62 62 0 0 0 111-12 48 48 0 0 1-34-77 62 62 0 0 0-82 77c1 4 3 7 5 12z m89-60a25 25 0 1 0 26-25 25 25 0 0 0-26 25z" horiz-adv-x="1000" />

<glyph glyph-name="mixed-sm" unicode="&#xe851;" d="M535 353h-23v108h23v-108z m97 96h-23v-97h23v97z m25 20v-117c0-70-57-107-114-107-26 0-52 10-72 27l-3 3c43-17 92 3 109 46 5 11 6 21 6 32v92h-23v-92c5-34-18-64-52-69s-65 18-69 52c0 6 0 11 0 17v163h-24v-164c-1-37 13-73 40-97 25-22 56-33 88-33 23 0 45 7 65 16-63-60-163-57-223 6-28 29-43 68-43 108v77h-23v-77c0-100 81-182 181-182s182 82 182 182v117h-25z m-266-4h-23v-112h23v112z m97 51h-23v-164h23v164z" horiz-adv-x="1000" />

<glyph glyph-name="mixed" unicode="&#xe852;" d="M177 633h46v-278h-46v278z m240 131h46v-408h-46v408z m120-140h46v-268h-46v268z m240-29h46v-239h-46v239z m118-239c0-177-144-267-287-267-68-2-133 21-183 64-10 8-17 17-25 28 97-56 222-22 277 75 17 31 26 65 26 100v229h-46v-229c0-86-71-157-157-157-86 0-157 71-157 157v408h-46v-408l0 0c0-98 34-181 97-237 60-50 135-78 214-77 66 0 132 19 189 53-145-164-395-179-558-34-85 74-134 181-134 295v191h-46v-191c0-244 198-443 443-443s441 199 441 443v293h-46l-2-293z" horiz-adv-x="1000" />

<glyph glyph-name="fresh" unicode="&#xe853;" d="M890 627l-5 27-26-10a910 910 0 0 1-211-109 914 914 0 0 1-129 199l-17 21-18-21a911 911 0 0 1-130-201 910 910 0 0 1-213 111l-26 10-5-27c-37-214-9-383 83-502a456 456 0 0 1 294-166l1-2 12 1 11-1 1 2a456 456 0 0 1 295 166c93 119 121 288 83 502z m-385-588a407 407 0 0 0 8 261c45 114 146 206 300 276z m-3 644a823 823 0 0 0 109-177 472 472 0 0 1-141-190 443 443 0 0 1-18-260c-66 74-152 221-67 432a799 799 0 0 0 117 195z m-272-529c-81 103-107 250-79 437a819 819 0 0 0 185-102c-84-228 14-388 87-468a400 400 0 0 0-193 133z m541 0a408 408 0 0 0-228-143l311 542c19-168-9-303-83-399z" horiz-adv-x="1000" />

<glyph glyph-name="fresh-sm" unicode="&#xe854;" d="M674 473l-3 13-13-5a404 404 0 0 1-92-48 405 405 0 0 1-57 88l-8 10-9-10a403 403 0 0 1-57-88 402 402 0 0 1-93 48l-13 5-3-14c-16-95-4-169 37-223a203 203 0 0 1 130-74l0-1 6 0 6 0 0 1a203 203 0 0 1 132 75c41 53 53 128 37 223z m-171-257a177 177 0 0 0 4 111c19 49 62 89 128 119z m-2 279a361 361 0 0 0 46-76 209 209 0 0 1-62-83 196 196 0 0 1-8-110 173 173 0 0 0-26 184 350 350 0 0 0 50 85z m-119-231c-35 45-46 109-35 191a358 358 0 0 0 79-44 195 195 0 0 1 36-204 173 173 0 0 0-80 57z m237 0a178 178 0 0 0-97-61l133 232c8-72-4-129-36-171z" horiz-adv-x="1000" />

<glyph glyph-name="happy" unicode="&#xe855;" d="M685-96l-185 205-185-205 14 275-275-14 205 185-205 185 275-14-14 275 185-204 185 204-14-275 275 14-204-185 204-185-275 14 14-275z m-185 274l132-146-10 197 197-11-147 132 147 132-197-10 10 197-132-147-132 147 11-197-197 10 146-132-146-132 197 11-11-197 132 146z m-332 131l-119 41 119 42 14-40 1 0 0-2 0-1-1 0-14-40z m14-277l53 113 39-18 1 0 0-2 2-1 0-2 18-38-113-52z m53 524l-53 114 113-54-18-40 0-1-2 0 0-2-1 0-39-17z m267 111l0 0h-3l0 2-40 13 41 119 42-119-40-15 0 0z m-2-768l-41 119 40 14 0 1 1 0 2 0 0-1 40-14-42-119z m319 133l-114 53 18 39 0 1 2 2 0 2 1 0 39 18 54-115z m-54 524l-39 17-1 0 0 2-2 0 0 1-18 39 114 54-54-113z m67-247l-13 40-2 0 0 1 0 2 2 0 13 40 119-42-119-41z" horiz-adv-x="1000" />

<glyph glyph-name="happy-sm" unicode="&#xe856;" d="M417 149l6 124-124-6 92 83-92 83 124-6-6 125 83-93 83 93-6-125 125 6-93-83 93-83-125 6 6-124-83 92-83-92z m83 127l57-63-5 85 85-5-63 57 63 57-85-5 5 85-57-63-57 63 5-85-85 5 63-57-63-57 85 5-5-85 57 63z m-148 54l-55 20 55 20 7-17 1 0 0-1 0-2-1 0-7-20z m3-125l27 54 17-7 1 1 0-3 2 0 0-1 7-17-54-27z m27 236l-27 54 54-26-7-17 0-2-2 0 0-1-1 0-17-8z m120 49l-2 0-1 0 0 2-17 6 20 55 20-55-17-6-3-2z m-2-343l-20 55 17 7 0 1 2-1 1 1 0-1 17-7-17-55z m145 58l-54 27 8 17-2 1 2 0 0 2 1-2 17 8 28-53z m-26 236l-17 8-2 0 0 1-3 0 2 2-8 17 54 26-26-54z m29-111l-6 17-2 0 2 2-2 1 2 0 6 17 55-20-55-17z" horiz-adv-x="1000" />

<glyph glyph-name="chiptune" unicode="&#xe857;" d="M885 512v77h77v46h-123v-77h-54v77h-76v54h76v123h-46v-77h-77v-100h-77v177h-46v-177h-73v177h-46v-177h-81v100h-77v77h-47v-123h77v-54h-77v-77h-54v77h-123v-46h77v-77h100v-82h-176v-46h176v-72h-176v-47h176v-78h-100v-77h-77v-46h123v77h54v-77h77v-54h-77v-123h47v77h77v101h81v-177h47v177h72v-177h46v177h78v-100h77v-77h46v123h-77v54h77v77h54v-77h123v46h-77v77h-101v77h177v47h-177v72h177v47h-177v81z m-146-402h-477v479h478z" horiz-adv-x="1000" />

<glyph glyph-name="chiptune-sm" unicode="&#xe858;" d="M644 407v28h25v23h-48v-28h-13v28h-28v13h28v48h-23v-25h-28v-36h-23v61h-23v-61h-20v61h-24v-61h-23v36h-29v25h-23v-48h29v-13h-29v-28h-13v28h-48v-23h25v-28h36v-24h-61v-23h61v-21h-61v-23h61v-22h-36v-29h-25v-23h48v29h13v-29h29v-13h-29v-48h23v25h29v36h23v-61h24v61h20v-61h23v61h23v-36h28v-25h23v48h-28v13h28v29h13v-29h48v23h-25v29h-36v22h61v23h-61v21h61v23h-61v24z m-59-142h-170v170h170z" horiz-adv-x="1000" />

<glyph glyph-name="pop" unicode="&#xe859;" d="M502 98c103 1 195 64 233 161 0 2 2 3 2 6 46 24 66 80 42 128-10 19-24 32-42 42-35 100-131 167-237 167h-6c-5 14-12 27-22 37-37 37-97 39-133 2l0 0c-31-29-37-76-17-114-97-98-96-258 3-355 1-2 1-2 3-3-22-48 0-104 47-127s104 0 127 48c-2 3 0 6 0 8l0 0z m193 203c-27 0-49 21-49 49s22 49 49 49 50-21 50-49l0 0c-2-28-23-49-50-49z m-326 306c10 9 22 14 36 14s26-6 34-16c3-3 6-6 7-9-32-6-61-20-89-37-5 16 0 36 12 48z m-75-257c0 114 92 206 206 206 77 0 148-43 183-112-52-6-89-54-83-106 5-43 40-77 83-83-52-102-175-142-277-90-69 37-112 108-112 185z m118-269c-27 0-49 21-49 49 0 3 0 5 2 8 26-17 57-29 87-36-7-13-23-21-40-21z m65-76h46v-120h-46v120z m0 810h46v-120h-46v120z m-442-442h120v-46h-120v46z m810 0h120v-46h-120v46z m-117-283l32 32 85-84-33-33-84 85z m-573 572l33 33 84-85-32-32-85 84z m0-624l85 84 32-32-84-85-33 33z m573 572l84 85 33-33-85-84-32 32z m-109-585l41 19 49-109-41-19-49 109z m-553 157l109 50 19-42-109-49-19 41z m739 330l109 49 18-42-109-49-18 42z m9-307l17 44 112-44-17-43-112 43z m-757 290l17 43 112-43-17-43-112 43z m545 186l43 112 43-17-43-112-43 17z" horiz-adv-x="1000" />

<glyph glyph-name="pop-sm" unicode="&#xe85a;" d="M503 255c39 1 72 24 86 60 0 0 0 0 0 1 19 9 25 33 16 51-3 6-10 12-16 15-14 37-49 62-89 62l0 0c-1 5-5 9-8 12-13 16-38 17-53 3-13-10-17-30-8-44-36-37-34-96 1-133-1-4-1-7-1-12 0-21 17-37 38-37 14-1 28 8 34 22l0 0z m68 110c8 0 15-6 15-15 0-8-6-15-15-15-8 0-16 6-16 15s8 15 16 15l0 0z m-117 77c6 7 14 7 20 0-9-3-17-6-25-10 2 3 3 7 5 10l0 0z m-26-92c0 40 32 72 71 72 26 0 49-13 61-35-20-5-32-25-28-46 3-14 14-25 28-28-20-34-65-46-98-24-20 12-34 36-34 61l0 0z m26-83c8-5 15-6 23-9-3-2-6-3-9-3-6 1-13 6-14 12z m35-43h23v-43h-23v43z m0 295h23v-43h-23v43z m-158-158h43v-23h-43v23z m295 0h43v-23h-43v23z m-46-108l17 17 31-31-17-17-31 31z m-208 209l17 17 31-30-17-17-31 30z m0-223l31 31 17-17-31-31-17 17z m210 208l30 31 17-17-30-31-17 17z m-40-215l21 9 17-40-21-9-17 40z m-202 58l40 17 9-22-40-16-9 21z m269 122l40 17 10-22-40-17-10 22z m5-117l8 21 40-15-8-22-40 16z m-275 104l7 22 40-16-7-21-40 15z m195 73l15 40 22-8-16-40-21 8z" horiz-adv-x="1000" />

<glyph glyph-name="synthwave" unicode="&#xe85b;" d="M874 761h-748l114-197h-114l374-649 374 649h-114l114 197z m-669-46h589l-86-150h-416l-87 150z m477-196l-182-315-181 315h363z m113 0l-295-510-295 510h60l235-407 235 406h60z" horiz-adv-x="1000" />

<glyph glyph-name="star" unicode="&#xe85d;" d="M526 21l-325-171 62 362-263 256 363 53 163 329 162-329 363-53-262-256 62-362z" horiz-adv-x="1052" />

<glyph glyph-name="bits" unicode="&#xe860;" d="M945 119v20c0 7 0 7-7 14v7l-428 669a52 52 0 0 1-82 0l-422-669v-7c0-6 0-6-7-13v-21h0v-14h0c7-7 7-14 14-14h0l421-234c7-7 14-7 28-7a41 41 0 0 1 27 7l422 234h0l7 7 6 7h0v7c14 0 21 0 21 7z m-476 586l262-421-241 138a78 78 0 0 1-55 0l-241-138z m0-752l-317 173 317 186 317-186z" horiz-adv-x="945" />

<glyph glyph-name="synthwave-sm" unicode="&#xe861;" d="M668 538h-336l50-86h-50l168-290 168 290h-49l49 86z m-296-23h256l-37-63h-182l-37 63z m205-86l-77-134-77 134h154z m51 0l-128-220-128 220h23l105-180 105 180h23z" horiz-adv-x="1000" />

<glyph glyph-name="song-request" unicode="&#xe862;" d="M1194 120c0 6 0 6 0 11 0 0 0 5 0 5 0 5 0 5-5 10 0 0 0 5 0 5l-317 495c-5 10-20 15-30 15s-26-5-31-15l-311-495c0 0 0-5 0-5 0-5 0-5-5-10 0 0 0-5 0-5 0-5 0-5 0-11 0 0 0 0 0 0 0 0 0-5 0-5 0 0 0-5 0-5 0 0 0 0 0 0 5-5 5-10 10-10 0 0 0 0 0 0 0 0 0 0 0 0l311-174c5-5 11-5 21-5s10 0 20 5l311 174c0 0 0 0 0 0 0 0 6 5 6 5 0 0 5 5 5 5 0 0 0 0 0 0 0 0 0 5 0 5 10 0 15 0 15 5 0 0 0 0 0 0z m-352 434l194-311-179 102c-10 5-25 5-41 0l-178-102 204 311z m0-556l-235 128 235 137 235-137-235-128z m-480 168l0 5c0 11-5 21-10 31l-138 480h393v102h-530l137-480c-5 0-10 0-20 0-92 0-163-71-163-163 0-92 71-163 163-163 92 0 163 71 163 163 5 10 5 15 5 25l0 0z" horiz-adv-x="1224" />

<glyph glyph-name="sr-queue" unicode="&#xe863;" d="M1456 142c0 6 0 6 0 12v6c0 6 0 6-6 12v6l-356 567c-6 11-24 17-35 17s-30-6-36-17l-356-567v-6c0-6 0-6-6-12v-6c0-6 0-6 0-12l0 0v-5-6l0 0c6-6 6-12 12-12l0 0 0 0 356-199c6-6 12-6 24-6s11 0 23 6l357 199 0 0 6 6 5 6 0 0v6c12 0 12 5 12 5l0 0z m-397 498l222-357-205 117c-12 6-29 6-47 0l-204-117 234 357z m0-632l-269 146 269 158 269-158-269-146z m-1036 784h731v-88h-731v88z m0-345h498v-88h-498v88z m0-345h498v-88h-498v88z" horiz-adv-x="1485" />

<glyph glyph-name="trophy" unicode="&#xe91e;" d="M820 794v56h-652v-56h-168v-37a599 599 0 0 1 44-211 373 373 0 0 1 279-236 287 287 0 0 1 44-44v-81h68v-167h-68v-69h-75v-99h404v99h-75v69h-62v167h68v81a287 287 0 0 1 44 44 373 373 0 0 1 279 236 599 599 0 0 1 44 211v37z m-702-223a576 576 0 0 0-37 149h99a921 921 0 0 1 81-311 307 307 0 0 0-143 162z m758 6a347 347 0 0 0-143-168 795 795 0 0 1 81 311h99a373 373 0 0 0-37-143z" horiz-adv-x="994" />

<glyph glyph-name="duration" unicode="&#xe91f;" d="M500-150a500 500 0 1 0 500 500 502 502 0 0 0-500-500z m0 911a411 411 0 1 1 411-411 412 412 0 0 1-411 411z m244-399l-21 89-178-41v214h-90v-328z" horiz-adv-x="1000" />

<glyph glyph-name="twitter" unicode="&#xf099;" d="M904 622q-37-54-90-93 0-8 0-23 0-73-21-145t-64-139-103-117-144-82-181-30q-151 0-276 81 19-2 43-2 126 0 224 77-59 1-105 36t-64 89q19-3 34-3 24 0 48 6-63 13-104 62t-41 115v2q38-21 82-23-37 25-59 64t-22 86q0 49 25 91 68-83 164-133t208-55q-5 21-5 41 0 75 53 127t127 53q79 0 132-57 61 12 115 44-21-64-80-100 52 6 104 28z" horiz-adv-x="928.6" />

<glyph glyph-name="facebook" unicode="&#xf09a;" d="M535 843v-147h-87q-48 0-65-20t-17-60v-106h164l-22-165h-142v-424h-171v424h-142v165h142v122q0 104 58 161t155 57q82 0 127-7z" horiz-adv-x="571.4" />

<glyph glyph-name="web" unicode="&#xf0ac;" d="M711 475h257c11-40 16-82 16-125s-5-85-16-125h-257c10 84 10 169 0 250z m-349-312c21-105 65-220 137-297 0 0 1 0 1 0s1 0 1 0c73 77 116 192 137 297h-276z m340 375h245c-63 148-197 259-359 288 59-84 95-188 114-288z m-54-63h-296c-11-82-11-168 0-250h296c11 82 11 168 0 250z m-350-312h-245c63-149 197-260 359-289-59 84-95 188-114 289z m404 0c-19-101-55-205-114-289 162 29 296 140 359 289h-245z m-64 375c-21 104-64 219-137 296 0 0-1 0-1 0s-1 0-1 0c-73-77-116-192-137-296h276z m-606-63c-11-40-16-82-16-125s5-85 16-125h257c-10 81-10 166 0 250h-257z m266 63c19 100 55 204 114 288-162-29-296-140-359-288h245z" horiz-adv-x="1000" />

<glyph glyph-name="youtube" unicode="&#xf16a;" d="M397 221l270 139-270 141v-280z m103 481q94 0 181-3t128-5l41-2q0 0 9-1t13-2 13-2 16-5 16-7 17-11 16-15q4-3 9-10t16-33 15-56q4-36 7-76t3-64v-98q1-81-10-162-4-30-14-55t-18-35l-8-9q-7-8-16-15t-17-10-16-7-16-5-13-2-13-2-9-1q-140-11-350-11-115 2-201 4t-111 4l-28 3-20 2q-20 3-30 5t-29 12-31 23q-4 3-9 10t-16 33-15 56q-4 36-7 76t-3 64v98q-1 81 10 162 4 31 14 55t18 35l8 9q8 9 16 15t17 11 16 7 16 5 13 2 13 2 9 1q140 10 350 10z" horiz-adv-x="1000" />

<glyph glyph-name="instagram" unicode="&#xf16d;" d="M571 350q0 59-41 101t-101 42-101-42-42-101 42-101 101-42 101 42 41 101z m77 0q0-91-64-156t-155-64-156 64-64 156 64 156 156 64 155-64 64-156z m61 229q0-21-15-36t-37-15-36 15-15 36 15 36 36 15 37-15 15-36z m-280 123q-4 0-43 0t-59 0-54-2-57-5-40-11q-28-11-49-32t-33-49q-6-16-10-40t-6-58-1-53 0-59 0-43 0-43 0-59 1-53 6-58 10-40q12-28 33-49t49-32q16-6 40-11t57-5 54-2 59 0 43 0 42 0 59 0 54 2 58 5 39 11q28 11 50 32t32 49q6 16 10 40t6 58 1 53 0 59 0 43 0 43 0 59-1 53-6 58-10 40q-11 28-32 49t-50 32q-16 6-39 11t-58 5-54 2-59 0-42 0z m428-352q0-128-3-177-5-116-69-180t-179-69q-50-3-177-3t-177 3q-116 6-180 69t-69 180q-3 49-3 177t3 177q5 116 69 180t180 69q49 3 177 3t177-3q116-6 179-69t69-180q3-49 3-177z" horiz-adv-x="857.1" />

<glyph glyph-name="apple" unicode="&#xf179;" d="M777 172q-21-70-68-139-72-110-144-110-27 0-78 18-48 18-84 18-34 0-79-19-45-19-74-19-85 0-168 145-82 146-82 281 0 127 63 208 63 81 159 81 40 0 98-17 58-17 77-17 25 0 80 19 57 19 97 19 66 0 119-36 29-20 58-56-44-37-64-66-36-52-36-115 0-69 38-125t88-70z m-209 655q0-34-17-76-16-42-52-77-30-30-60-40-20-7-58-10 2 83 44 143 41 60 139 83 1-2 2-6t1-6q0-2 0-6t1-5z" horiz-adv-x="785.7" />

<glyph glyph-name="windows" unicode="&#xf17a;" d="M381 289v-364l-381 53v311h381z m0 414v-367h-381v315z m548-414v-439l-507 70v369h507z m0 490v-443h-507v373z" horiz-adv-x="928.6" />

<glyph glyph-name="google" unicode="&#xf1a0;" d="M429 411h404q7-37 7-71 0-121-51-216t-145-149-215-54q-88 0-167 34t-137 91-91 137-34 167 34 167 91 137 137 91 167 34q167 0 287-113l-117-112q-68 67-170 67-72 0-133-37t-97-98-36-136 36-136 97-98 133-37q48 0 89 14t67 33 46 46 28 49 13 43h-243v147z" horiz-adv-x="857.1" />

<glyph glyph-name="spotify" unicode="&#xf1bc;" d="M629 175q0 18-17 28-107 64-249 64-74 0-160-19-24-5-24-29 0-11 8-19t20-8q2 0 20 5 74 15 136 15 126 0 221-58 11-6 19-6 10 0 18 8t8 19z m54 120q0 22-20 34-132 79-306 79-85 0-169-24-27-7-27-36 0-14 10-23t24-10q4 0 20 4 69 19 141 19 155 0 272-69 13-8 21-8 14 0 24 10t10 24z m60 138q0 26-23 39-70 41-163 62t-191 21q-114 0-204-26-12-4-21-15t-9-27q0-17 12-29t28-11q7 0 23 4 74 21 171 21 89 0 173-19t141-53q12-7 23-7 16 0 28 11t12 29z m114-83q0-117-57-215t-156-156-215-58-216 58-155 156-58 215 58 215 155 156 216 58 215-58 156-156 57-215z" horiz-adv-x="857.1" />

<glyph glyph-name="soundcloud-fa" unicode="&#xf1be;" d="M438 84l8 135-8 292q-1 5-5 9t-9 4q-5 0-9-4t-4-9l-7-292 7-135q1-5 5-9t8-3q12 0 14 12z m165 17l6 117-7 327q0 9-7 14-5 3-9 3t-9-3q-7-5-7-14l-1-3-5-323q0-1 6-132v0q0-6 3-10 5-6 13-6 6 0 11 5 5 4 5 11z m-583 189l11-71-11-70q-2-5-5-5t-5 5l-10 70 10 71q1 5 5 5t5-5z m48 44l14-115-14-113q-2-5-6-5-5 0-5 5l-13 113 13 115q0 5 5 5 4 0 6-5z m156-252z m-105 274l14-137-14-132q0-6-6-6-6 0-7 6l-12 132 12 137q1 6 7 6 6 0 6-6z m52 4l13-141-13-136q-1-8-7-8-8 0-8 8l-11 136 11 141q0 7 8 7 6 0 7-7z m53-11l12-130-12-137q-1-9-9-9-3 0-6 2t-2 7l-12 137 12 130q0 4 2 6t6 3q8 0 9-9z m214-265z m-162 347l12-212-12-137q0-4-3-7t-6-3q-9 0-10 10l-10 137 10 212q1 10 10 10 4 0 6-3t3-7z m53 48l10-261-10-136q0-5-3-8t-8-3q-10 0-11 11l-9 136 9 261q1 11 11 11 5 0 8-4t3-7z m54 22l10-282-10-135q-1-12-12-12-10 0-12 12l-9 135 9 282q0 5 4 9t8 4q5 0 9-4t3-9z m219-414z m-110 417l8-285-8-133q0-6-5-10t-9-4-10 3-4 11l-8 133 8 285q0 6 4 10t10 3 9-3 5-10z m55-11l8-275-8-131q0-6-5-11t-10-4-11 4-5 11l-6 131 6 275q1 7 5 11t11 5 10-5 5-11z m118-275l-8-129q0-7-5-12t-12-5-12 5-6 12l-3 64-3 65 6 355v2q1 8 7 13 5 4 11 4 5 0 8-3 8-4 9-14z m621 11q0-65-47-111t-111-46h-439q-7 1-12 6t-5 12v502q0 13 16 18 47 19 101 19 108 0 188-73t89-181q30 12 62 12 65 0 111-46t47-112z" horiz-adv-x="1285.7" />

<glyph glyph-name="twitch" unicode="&#xf1e8;" d="M500 608v-242h-81v242h81z m222 0v-242h-81v242h81z m0-424l141 141v444h-666v-585h182v-121l121 121h222z m222 666v-565l-242-242h-182l-121-122h-121v122h-222v646l61 161h827z" horiz-adv-x="1000" />

<glyph glyph-name="medium" unicode="&#xf23a;" d="M333 615v-655q0-14-7-23t-20-10q-10 0-19 4l-259 131q-12 5-20 18t-8 26v636q0 12 6 19t16 8q8 0 24-8l286-143q1-2 1-3z m36-56l298-484-298 149v335z m631-10v-589q0-14-8-22t-21-9-26 7l-246 123z m-2 67q0-2-143-234t-167-272l-218 353 181 294q9 16 29 16 8 0 14-3l302-151q2-1 2-3z" horiz-adv-x="1000" />

<glyph glyph-name="amazon" unicode="&#xf270;" d="M866 26q8 4 14 2t6-10-8-18q-7-9-25-25t-53-38-79-41-105-32-128-14q-66 0-132 17t-117 43-96 58-74 59-47 48q-5 6-6 10t1 6 4 4 7 1 6-2q107-65 168-93 217-98 445-50 106 22 219 75z m115 65q6-9 1-39t-15-58q-19-46-48-69-9-8-14-5t0 14q11 25 24 68t4 55q-3 3-9 6t-15 3-16 2-20 0-17-1-18-2-12-1q-3-1-7-1t-6-1-5 0-4 0h-6t-1 0-1 1l-1 1q-4 9 26 23t57 16q26 4 61 1t42-13z m-220 247q0-18 8-36t18-32 21-26 18-18l7-6-126-125q-23 21-45 42t-32 33l-11 11q-6 6-13 18-22-33-55-57t-71-35-78-13-77 12-65 36-47 63-17 91q0 47 16 86t40 65 59 46 69 32 72 19 67 11 55 3v71q0 36-11 54-19 30-68 30-3 0-9-1t-23-6-31-17-31-33-27-54l-164 15q0 34 12 67t38 63 60 53 84 36 107 14q55 0 101-14t72-34 45-47 25-48 7-41v-328z m-375-12q0-48 39-74 37-25 78-12 47 14 63 68 8 25 8 57v90q-33-1-62-7t-59-18-49-40-18-64z" horiz-adv-x="1000" />

<glyph glyph-name="bandcamp" unicode="&#xf2d5;" d="M597 193l171 314h-365l-171-314h365z m403 157q0-102-40-194t-106-160-160-106-194-40-194 40-160 106-106 160-40 194 40 194 106 160 160 106 194 40 194-40 160-106 106-160 40-194z" horiz-adv-x="1000" />

<glyph glyph-name="soundcloud" unicode="&#xf348;" d="M34 178q0-4-10-4-6 0-10 4l-14 70 14 72q4 4 10 4 10 0 10-4l16-72z m102-38q0-8-12-8t-12 8l-12 108 12 166q0 8 12 8t12-8l14-166z m102 2q0-10-14-10t-14 8l-10 108 10 222q0 10 14 10t14-10l12-222z m102 0q0-10-16-10t-16 10l-8 106 8 224q0 10 16 10t16-10l10-224z m102 2q0-12-18-12-16 0-18 12l-6 104 6 256q4 14 18 14 18 0 18-14l8-256z m72-12q-14 0-14 14l0 396q0 10 12 14 36 14 84 14 88 0 153-58t73-142q24 10 50 10 52 0 90-37t38-87q0-52-38-89t-90-37z" horiz-adv-x="1000" />
</font>
</defs>
</svg>
